<mxfile host="app.diagrams.net" modified="2023-06-19T17:33:38.372Z" agent="Mozilla/5.0 (Windows NT 10.0; Win64; x64) AppleWebKit/537.36 (KHTML, like Gecko) Chrome/114.0.0.0 Safari/537.36" etag="FykLCsy3Wg-cTAuYgwxw" version="21.3.5" type="device">
  <diagram name="Page-1" id="ceM6QkMJ76yWNvOOZF8d">
    <mxGraphModel dx="1050" dy="573" grid="1" gridSize="10" guides="1" tooltips="1" connect="1" arrows="1" fold="1" page="1" pageScale="1" pageWidth="850" pageHeight="1100" math="0" shadow="0">
      <root>
        <mxCell id="0" />
        <mxCell id="1" parent="0" />
        <mxCell id="swEpmWIcfvtxwDA0ZFDd-26" style="edgeStyle=orthogonalEdgeStyle;rounded=0;orthogonalLoop=1;jettySize=auto;html=1;dashed=1;" parent="1" source="6OTyTFiMumY5wDdaMYae-1" target="dGOxmdn3qptVKrP4rosP-4" edge="1">
          <mxGeometry relative="1" as="geometry" />
        </mxCell>
        <mxCell id="swEpmWIcfvtxwDA0ZFDd-28" style="edgeStyle=orthogonalEdgeStyle;rounded=0;orthogonalLoop=1;jettySize=auto;html=1;dashed=1;" parent="1" source="6OTyTFiMumY5wDdaMYae-1" target="6OTyTFiMumY5wDdaMYae-4" edge="1">
          <mxGeometry relative="1" as="geometry" />
        </mxCell>
        <mxCell id="6OTyTFiMumY5wDdaMYae-1" value="Editor" style="shape=folder;fontStyle=1;spacingTop=10;tabWidth=40;tabHeight=14;tabPosition=left;html=1;whiteSpace=wrap;" parent="1" vertex="1">
          <mxGeometry x="235" y="230" width="70" height="50" as="geometry" />
        </mxCell>
        <mxCell id="swEpmWIcfvtxwDA0ZFDd-27" style="edgeStyle=orthogonalEdgeStyle;rounded=0;orthogonalLoop=1;jettySize=auto;html=1;dashed=1;" parent="1" source="6OTyTFiMumY5wDdaMYae-2" target="dGOxmdn3qptVKrP4rosP-1" edge="1">
          <mxGeometry relative="1" as="geometry" />
        </mxCell>
        <mxCell id="swEpmWIcfvtxwDA0ZFDd-29" style="edgeStyle=orthogonalEdgeStyle;rounded=0;orthogonalLoop=1;jettySize=auto;html=1;dashed=1;" parent="1" source="6OTyTFiMumY5wDdaMYae-2" target="6OTyTFiMumY5wDdaMYae-4" edge="1">
          <mxGeometry relative="1" as="geometry" />
        </mxCell>
        <mxCell id="6OTyTFiMumY5wDdaMYae-2" value="Plugin" style="shape=folder;fontStyle=1;spacingTop=10;tabWidth=40;tabHeight=14;tabPosition=left;html=1;whiteSpace=wrap;" parent="1" vertex="1">
          <mxGeometry x="500" y="230" width="70" height="50" as="geometry" />
        </mxCell>
        <mxCell id="6OTyTFiMumY5wDdaMYae-3" value="&lt;div&gt;Efeito&lt;/div&gt;" style="shape=folder;fontStyle=1;spacingTop=10;tabWidth=40;tabHeight=14;tabPosition=left;html=1;whiteSpace=wrap;" parent="1" vertex="1">
          <mxGeometry x="370" y="110" width="70" height="50" as="geometry" />
        </mxCell>
        <mxCell id="swEpmWIcfvtxwDA0ZFDd-30" value="" style="edgeStyle=orthogonalEdgeStyle;rounded=0;orthogonalLoop=1;jettySize=auto;html=1;dashed=1;" parent="1" source="6OTyTFiMumY5wDdaMYae-4" target="6OTyTFiMumY5wDdaMYae-3" edge="1">
          <mxGeometry relative="1" as="geometry" />
        </mxCell>
        <mxCell id="6OTyTFiMumY5wDdaMYae-4" value="Cadeia de sinais" style="shape=folder;fontStyle=1;spacingTop=10;tabWidth=40;tabHeight=14;tabPosition=left;html=1;whiteSpace=wrap;" parent="1" vertex="1">
          <mxGeometry x="370" y="230" width="70" height="50" as="geometry" />
        </mxCell>
        <mxCell id="dGOxmdn3qptVKrP4rosP-1" value="nih_plug" style="shape=folder;fontStyle=1;spacingTop=10;tabWidth=40;tabHeight=14;tabPosition=left;html=1;whiteSpace=wrap;" parent="1" vertex="1">
          <mxGeometry x="500" y="340" width="70" height="50" as="geometry" />
        </mxCell>
        <mxCell id="dGOxmdn3qptVKrP4rosP-4" value="nih_plug_vizia" style="shape=folder;fontStyle=1;spacingTop=10;tabWidth=40;tabHeight=14;tabPosition=left;html=1;whiteSpace=wrap;" parent="1" vertex="1">
          <mxGeometry x="220" y="340" width="100" height="50" as="geometry" />
        </mxCell>
        <mxCell id="swEpmWIcfvtxwDA0ZFDd-34" value="&amp;lt;&amp;lt;use&amp;gt;&amp;gt;" style="text;html=1;align=center;verticalAlign=middle;resizable=0;points=[];autosize=1;strokeColor=none;fillColor=none;" parent="1" vertex="1">
          <mxGeometry x="540" y="298" width="70" height="30" as="geometry" />
        </mxCell>
        <mxCell id="swEpmWIcfvtxwDA0ZFDd-35" value="&amp;lt;&amp;lt;use&amp;gt;&amp;gt;" style="text;html=1;align=center;verticalAlign=middle;resizable=0;points=[];autosize=1;strokeColor=none;fillColor=none;" parent="1" vertex="1">
          <mxGeometry x="190" y="298" width="70" height="30" as="geometry" />
        </mxCell>
        <mxCell id="swEpmWIcfvtxwDA0ZFDd-36" value="&amp;lt;&amp;lt;access&amp;gt;&amp;gt;" style="text;html=1;align=center;verticalAlign=middle;resizable=0;points=[];autosize=1;strokeColor=none;fillColor=none;" parent="1" vertex="1">
          <mxGeometry x="290" y="210" width="90" height="30" as="geometry" />
        </mxCell>
        <mxCell id="swEpmWIcfvtxwDA0ZFDd-37" value="&amp;lt;&amp;lt;access&amp;gt;&amp;gt;" style="text;html=1;align=center;verticalAlign=middle;resizable=0;points=[];autosize=1;strokeColor=none;fillColor=none;" parent="1" vertex="1">
          <mxGeometry x="425" y="210" width="90" height="30" as="geometry" />
        </mxCell>
        <mxCell id="swEpmWIcfvtxwDA0ZFDd-38" value="&amp;lt;&amp;lt;use&amp;gt;&amp;gt;" style="text;html=1;align=center;verticalAlign=middle;resizable=0;points=[];autosize=1;strokeColor=none;fillColor=none;" parent="1" vertex="1">
          <mxGeometry x="410" y="170" width="70" height="30" as="geometry" />
        </mxCell>
      </root>
    </mxGraphModel>
  </diagram>
</mxfile>
